<?xml version="1.0" standalone="no"?>
<!DOCTYPE svg PUBLIC "-//W3C//DTD SVG 20010904//EN"
 "http://www.w3.org/TR/2001/REC-SVG-20010904/DTD/svg10.dtd">
<svg version="1.0" xmlns="http://www.w3.org/2000/svg"
 width="436.000000pt" height="149.000000pt" viewBox="0 0 436.000000 149.000000"
 preserveAspectRatio="xMidYMid meet">

<g transform="translate(0.000000,149.000000) scale(0.100000,-0.100000)"
fill="#000000" stroke="none">
<path d="M264 1239 c-8 -13 -12 -168 -16 -601 -2 -204 0 -270 10 -280 10 -10
15 -9 28 4 15 14 17 64 18 449 1 396 0 434 -16 437 -9 2 -20 -2 -24 -9z"/>
<path d="M3598 1143 c-11 -13 -18 -61 -26 -178 -21 -295 -24 -419 -13 -448 10
-26 15 -28 53 -25 l43 3 7 139 c4 77 12 144 17 149 7 7 26 -4 56 -29 25 -21
60 -50 78 -64 18 -14 61 -56 96 -93 35 -37 70 -67 76 -67 7 0 23 8 35 18 17
14 21 25 17 44 -11 42 -82 122 -172 193 -47 37 -85 71 -85 75 0 10 88 67 155
100 35 18 51 32 53 49 4 25 -23 61 -45 61 -22 0 -132 -58 -202 -107 l-64 -45
6 111 c6 102 5 111 -13 121 -28 15 -55 12 -72 -7z"/>
<path d="M541 1121 c-42 -77 -63 -553 -29 -632 17 -39 41 -51 76 -38 26 10 27
30 11 163 -6 48 -8 104 -4 122 l6 34 133 0 134 0 6 -25 c4 -14 5 -29 2 -33 -2
-4 0 -47 5 -97 7 -73 13 -93 30 -108 26 -21 43 -22 63 -1 13 12 15 34 10 122
-12 257 -25 414 -36 437 -12 28 -39 39 -67 30 -28 -9 -31 -25 -21 -122 5 -48
6 -91 2 -94 -8 -8 -105 -13 -195 -10 l-58 1 7 120 c8 130 2 150 -42 150 -13 0
-28 -8 -33 -19z"/>
<path d="M1357 1121 c-37 -14 -139 -291 -163 -441 -28 -176 -28 -171 -13 -181
25 -16 58 -10 73 14 8 12 20 48 27 80 7 32 16 60 20 63 16 9 224 33 230 26 4
-4 14 -35 23 -69 8 -34 23 -79 33 -100 15 -33 23 -38 55 -41 28 -2 38 1 42 16
16 51 -95 331 -217 547 -52 93 -66 104 -110 86z m83 -241 c23 -50 41 -92 39
-94 -8 -8 -159 -17 -159 -10 0 16 65 194 70 194 4 0 26 -41 50 -90z"/>
<path d="M1879 1113 c-15 -18 -22 -91 -38 -412 -9 -178 -9 -208 4 -228 18 -26
56 -31 75 -8 7 9 15 66 20 140 4 69 9 127 11 129 2 2 22 6 44 9 l40 6 40 -62
c21 -34 62 -92 89 -129 54 -74 82 -86 110 -47 13 20 13 26 -6 63 -11 23 -30
54 -42 71 -40 56 -85 135 -77 135 5 0 29 19 55 43 44 42 46 45 46 101 0 69
-16 102 -72 150 -52 45 -91 56 -199 56 -68 0 -89 -3 -100 -17z m199 -97 c55
-29 80 -80 56 -115 -16 -23 -84 -50 -134 -53 l-35 -3 2 79 c1 43 4 85 7 92 7
18 69 18 104 0z"/>
<path d="M2564 1103 c-88 -5 -96 -17 -108 -159 -7 -83 -6 -150 2 -237 7 -67
12 -142 12 -167 0 -54 7 -65 42 -79 20 -8 36 -7 62 4 20 8 45 15 57 15 12 0
52 18 88 41 66 40 140 127 186 218 43 84 24 234 -38 299 -17 17 -55 41 -84 52
-53 20 -75 21 -219 13z m171 -107 c19 -8 46 -26 60 -40 55 -55 17 -214 -71
-297 -52 -49 -136 -93 -145 -76 -12 21 -29 255 -23 315 9 94 12 100 42 105 59
9 104 6 137 -7z"/>
<path d="M3123 1103 c-7 -2 -13 -20 -13 -39 0 -27 5 -37 25 -46 14 -6 28 -21
30 -32 7 -30 10 -175 7 -286 l-2 -95 -33 -15 c-27 -13 -32 -20 -32 -50 0 -34
1 -35 45 -38 67 -5 148 7 166 25 21 21 14 55 -14 69 -23 12 -24 14 -27 213 -4
186 -3 201 14 201 25 0 41 20 41 52 0 21 -6 31 -26 38 -26 10 -159 12 -181 3z"/>
</g>
</svg>
