<?xml version="1.0" standalone="no"?>
<!DOCTYPE svg PUBLIC "-//W3C//DTD SVG 20010904//EN"
 "http://www.w3.org/TR/2001/REC-SVG-20010904/DTD/svg10.dtd">
<svg version="1.0" xmlns="http://www.w3.org/2000/svg"
 width="16.000000pt" height="16.000000pt" viewBox="0 0 16.000000 16.000000"
 preserveAspectRatio="xMidYMid meet">

<g transform="translate(0.000000,16.000000) scale(0.100000,-0.100000)"
fill="#000000" stroke="none">
<path d="M70 121 c0 -12 5 -21 10 -21 6 0 10 6 10 14 0 8 -4 18 -10 21 -5 3
-10 -3 -10 -14z"/>
<path d="M120 81 c0 -39 -4 -51 -17 -54 -14 -4 -12 -5 5 -6 20 -1 22 3 22 54
0 30 -2 55 -5 55 -3 0 -5 -22 -5 -49z"/>
<path d="M70 50 c0 -11 -7 -20 -15 -20 -8 0 -15 -4 -15 -10 0 -21 31 -9 40 16
12 32 12 34 0 34 -5 0 -10 -9 -10 -20z"/>
</g>
</svg>
