<?xml version="1.0" standalone="no"?>
<!DOCTYPE svg PUBLIC "-//W3C//DTD SVG 20010904//EN"
 "http://www.w3.org/TR/2001/REC-SVG-20010904/DTD/svg10.dtd">
<svg version="1.0" xmlns="http://www.w3.org/2000/svg"
 width="16.000000pt" height="16.000000pt" viewBox="0 0 16.000000 16.000000"
 preserveAspectRatio="xMidYMid meet">

<g transform="translate(0.000000,16.000000) scale(0.100000,-0.100000)"
fill="#000000" stroke="none">
<path d="M38 113 c-39 -20 -36 -49 6 -70 32 -15 37 -15 71 1 l37 18 -33 34
c-36 37 -41 39 -81 17z m72 -18 c23 -24 21 -50 -2 -27 -7 7 -18 12 -26 12 -12
0 -12 -3 -2 -15 22 -26 1 -30 -25 -5 -32 30 -32 42 0 34 20 -5 24 -3 19 10 -9
24 9 19 36 -9z"/>
</g>
</svg>
