<?xml version="1.0" standalone="no"?>
<!DOCTYPE svg PUBLIC "-//W3C//DTD SVG 20010904//EN"
 "http://www.w3.org/TR/2001/REC-SVG-20010904/DTD/svg10.dtd">
<svg version="1.0" xmlns="http://www.w3.org/2000/svg"
 width="321.000000pt" height="100.000000pt" viewBox="0 0 321.000000 100.000000"
 preserveAspectRatio="xMidYMid meet">

<g transform="translate(0.000000,100.000000) scale(0.100000,-0.100000)"
fill="#000000" stroke="none">
<path d="M55 520 c0 -70 2 -80 18 -80 13 0 17 9 17 42 l0 42 43 -42 c23 -23
51 -42 62 -42 16 0 12 7 -19 39 l-37 38 30 13 c39 16 41 47 5 60 -36 14 -39
13 -19 -10 16 -18 17 -22 4 -35 -14 -13 -32 -19 -56 -16 -8 1 -13 15 -13 36 0
27 -4 35 -17 35 -16 0 -18 -10 -18 -80z"/>
<path d="M376 592 c-8 -14 64 -152 79 -152 19 0 20 -4 -20 84 -32 71 -47 88
-59 68z"/>
<path d="M590 520 c0 -64 3 -80 15 -80 12 0 15 16 15 80 0 64 -3 80 -15 80
-12 0 -15 -16 -15 -80z"/>
<path d="M845 520 c0 -69 2 -80 18 -80 15 0 17 10 17 80 0 70 -2 80 -17 80
-16 0 -18 -10 -18 -80z"/>
<path d="M940 590 c0 -6 5 -10 10 -10 17 0 11 -38 -7 -49 -15 -9 -15 -10 -2
-11 24 0 51 25 48 45 -4 19 -49 42 -49 25z"/>
<path d="M1100 520 c0 -70 2 -80 18 -80 15 0 17 10 17 80 0 70 -2 80 -17 80
-16 0 -18 -10 -18 -80z"/>
<path d="M1220 520 c0 -70 2 -80 18 -80 15 0 17 10 17 80 0 70 -2 80 -17 80
-16 0 -18 -10 -18 -80z"/>
<path d="M1590 520 c0 -64 3 -80 15 -80 12 0 15 16 15 80 0 64 -3 80 -15 80
-12 0 -15 -16 -15 -80z"/>
<path d="M1886 585 c-3 -8 -2 -15 3 -15 4 0 20 -29 36 -65 16 -38 33 -65 42
-65 18 0 12 23 -28 103 -30 58 -42 68 -53 42z"/>
<path d="M2100 530 c0 -58 3 -71 19 -80 26 -13 52 -13 29 1 -15 8 -18 24 -18
79 0 56 -3 70 -15 70 -12 0 -15 -14 -15 -70z"/>
<path d="M2218 525 c-2 -41 0 -71 4 -67 9 9 15 142 6 142 -3 0 -8 -34 -10 -75z"/>
<path d="M2360 520 c0 -73 2 -80 20 -80 18 0 20 7 20 80 0 73 -2 80 -20 80
-18 0 -20 -7 -20 -80z"/>
<path d="M2461 581 c17 -26 4 -51 -26 -51 -14 0 -25 -4 -25 -8 0 -13 74 -82
88 -82 19 0 14 12 -20 47 l-31 32 25 10 c39 15 44 32 18 53 -29 23 -43 23 -29
-1z"/>
<path d="M2628 520 c3 -61 7 -80 18 -80 11 0 14 17 14 80 0 70 -2 80 -17 80
-16 0 -18 -9 -15 -80z"/>
<path d="M2740 593 c0 -5 7 -17 15 -27 14 -19 15 -19 15 7 0 17 -5 27 -15 27
-8 0 -15 -3 -15 -7z"/>
<path d="M2892 518 l2 -83 5 75 6 75 59 -70 c33 -39 62 -68 65 -65 3 3 6 39 7
80 2 73 2 73 -5 15 l-6 -59 -49 57 c-27 32 -57 57 -67 57 -17 0 -19 -8 -17
-82z"/>
<path d="M2703 535 c-10 -10 -9 -16 2 -25 13 -10 15 -8 15 14 0 30 -1 30 -17
11z"/>
<path d="M325 489 c-9 -17 -15 -33 -13 -35 3 -2 12 12 21 31 21 43 13 47 -8 4z"/>
<path d="M1846 503 c-6 -14 -5 -15 5 -6 7 7 10 15 7 18 -3 3 -9 -2 -12 -12z"/>
<path d="M698 470 c-16 -29 -16 -30 2 -30 16 0 20 7 20 30 0 17 -1 30 -2 30
-2 0 -11 -14 -20 -30z"/>
<path d="M1698 470 c-16 -29 -16 -30 2 -30 16 0 20 7 20 30 0 17 -1 30 -2 30
-2 0 -11 -14 -20 -30z"/>
<path d="M2760 488 c0 -6 -7 -20 -17 -30 -15 -17 -15 -18 5 -18 18 0 22 6 22
30 0 17 -2 30 -5 30 -3 0 -5 -5 -5 -12z"/>
</g>
</svg>
