<svg version="1.1" preserveAspectRatio="none" xmlns="http://www.w3.org/2000/svg" width="500" height="500" viewBox="0 0 500 500"><rect width="100%" height="100%" fill="#FFFFFF" fill-opacity="1"/><svg viewBox="252.8698 669.3461 228.032 160" width="333" height="233.65141734493403" x="83.5px" y="133.1743px" xmlns="http://www.w3.org/2000/svg" xmlns:xlink="http://www.w3.org/1999/xlink" preserveAspectRatio="none"><defs></defs><style>.companyName {fill:#1e1e1e;fill-opacity:1;}.icon1 {fill:#EB3F3F;fill-opacity:1;}.icon3-str {stroke:#848383;stroke-opacity:1;}.shapeStroke-str {stroke:#1e1e1e;stroke-opacity:1;}</style><g opacity="1" transform="rotate(0 252.8698 709.3461)">
<svg width="228.032" height="120" x="252.8698" y="709.3461" version="1.1" preserveAspectRatio="none" viewBox="2.28 -28.64 55.64 29.28">
  <g transform="matrix(1 0 0 1 0 0)" class="companyName"><path id="id-D6z1nYkh2" d="M20.44-28L29.88-28L29.88 0L20.44 0L20.44-10.32L11.72-10.32L11.72 0L2.28 0L2.28-28L11.72-28L11.72-18.08L20.44-18.08L20.44-28Z M44.88 0.64Q41.40 0.64 38.10-0.14Q34.80-0.92 32.68-2.24L32.68-2.24L35.72-9.12Q37.72-7.96 40.20-7.26Q42.68-6.56 44.96-6.56L44.96-6.56Q46.92-6.56 47.76-6.94Q48.60-7.32 48.60-8.08L48.60-8.08Q48.60-8.96 47.50-9.40Q46.40-9.84 43.88-10.36L43.88-10.36Q40.64-11.04 38.48-11.82Q36.32-12.60 34.72-14.38Q33.12-16.16 33.12-19.20L33.12-19.20Q33.12-21.84 34.60-24Q36.08-26.16 39.02-27.40Q41.96-28.64 46.16-28.64L46.16-28.64Q49.04-28.64 51.82-28.02Q54.60-27.40 56.72-26.20L56.72-26.20L53.88-19.36Q49.76-21.44 46.08-21.44L46.08-21.44Q42.44-21.44 42.44-19.68L42.44-19.68Q42.44-18.84 43.52-18.42Q44.60-18 47.08-17.52L47.08-17.52Q50.28-16.92 52.48-16.14Q54.68-15.36 56.30-13.60Q57.92-11.84 57.92-8.80L57.92-8.80Q57.92-6.16 56.44-4.02Q54.96-1.88 52.02-0.62Q49.08 0.64 44.88 0.64L44.88 0.64Z"/></g>
</svg>
</g><g opacity="1" transform="rotate(0 252.8698 669.3461)">
<svg width="228.032" height="22" x="252.8698" y="669.3461" version="1.1" preserveAspectRatio="none" viewBox="0 0 228.032 22">
  <rect x="0" y="0" width="228.032" height="22" class="icon1 shapeStroke-str" style="stroke-width:0;" rx="0%" ry="0%" />
</svg>
</g></svg></svg>