<?xml version="1.0" standalone="no"?>
<!DOCTYPE svg PUBLIC "-//W3C//DTD SVG 20010904//EN"
 "http://www.w3.org/TR/2001/REC-SVG-20010904/DTD/svg10.dtd">
<svg version="1.0" xmlns="http://www.w3.org/2000/svg"
 width="512.000000pt" height="512.000000pt" viewBox="0 0 512.000000 512.000000"
 preserveAspectRatio="xMidYMid meet">

<g transform="translate(0.000000,512.000000) scale(0.100000,-0.100000)"
fill="#000000" stroke="none">
<path d="M1860 5096 c-180 -38 -342 -132 -462 -266 l-54 -61 -64 29 c-93 42
-152 54 -260 53 -170 0 -312 -62 -432 -189 -74 -79 -130 -181 -148 -269 -6
-32 -14 -67 -16 -78 -2 -12 -28 -34 -63 -53 -164 -94 -291 -266 -338 -459 -25
-104 -23 -278 5 -376 70 -245 244 -429 487 -514 l80 -28 718 -3 c557 -2 718
-5 715 -15 -8 -29 -105 -156 -120 -157 -9 0 -99 13 -199 30 -101 16 -184 28
-186 26 -2 -2 -41 -129 -87 -282 -45 -153 -86 -289 -90 -301 -7 -21 7 -29 173
-112 l179 -90 1 -115 c0 -106 9 -190 30 -277 l8 -37 -145 -108 c-80 -60 -152
-114 -160 -119 -20 -16 272 -578 297 -570 9 2 94 31 190 63 l173 58 78 -76
c43 -42 119 -105 169 -140 81 -57 91 -68 87 -90 -25 -129 -57 -363 -50 -370 5
-4 135 -47 289 -95 154 -48 286 -90 293 -93 8 -3 42 57 99 175 l86 180 151 6
c83 4 180 13 216 21 36 8 65 14 66 13 28 -44 239 -317 244 -315 4 2 131 68
282 147 l276 144 -64 190 -64 190 74 74 c41 41 104 117 142 169 55 78 71 95
88 91 63 -15 367 -59 372 -54 3 3 47 139 99 303 l93 299 -26 13 c-15 7 -94 43
-177 80 l-150 67 -7 150 c-3 83 -13 179 -22 215 -8 36 -12 68 -8 72 4 4 75 58
159 121 l152 114 -146 279 c-80 153 -146 280 -147 281 -1 2 -88 -26 -192 -61
l-190 -63 -72 72 c-40 40 -115 103 -167 140 -52 37 -95 71 -95 76 0 5 14 93
30 195 17 103 27 191 23 194 -5 4 -132 46 -285 93 -152 48 -283 90 -292 93
-11 4 -36 -36 -106 -176 -50 -100 -94 -180 -97 -177 -3 3 0 45 7 92 46 322
-138 661 -426 784 l-51 22 -7 68 c-16 181 -117 377 -260 507 -98 90 -213 152
-351 191 -73 20 -276 25 -355 9z m370 -176 c200 -70 353 -222 421 -420 15 -44
24 -101 28 -178 l6 -113 85 -33 c108 -41 155 -71 231 -148 101 -104 169 -271
169 -418 0 -263 -196 -506 -460 -571 -81 -20 -1999 -20 -2080 0 -112 27 -199
78 -285 165 -121 123 -175 250 -175 414 0 109 14 171 62 271 54 113 139 198
266 265 l92 49 0 56 c0 218 162 406 380 440 126 20 261 -20 370 -112 l54 -45
51 72 c82 118 113 152 178 201 137 104 244 137 422 132 92 -3 135 -9 185 -27z
m1513 -1391 c89 -28 165 -54 169 -58 4 -3 -4 -85 -17 -181 -13 -96 -23 -175
-22 -175 1 -1 36 -21 77 -46 104 -61 201 -140 296 -242 l82 -86 172 60 c95 33
174 58 175 57 6 -8 165 -320 165 -324 0 -2 -68 -54 -151 -115 -114 -85 -149
-115 -144 -128 4 -9 16 -61 28 -116 16 -78 21 -140 23 -284 l1 -185 159 -79
c88 -44 160 -81 162 -82 2 -2 -20 -81 -48 -177 l-52 -175 -151 23 c-84 13
-166 25 -183 29 -30 5 -33 2 -101 -102 -92 -141 -146 -201 -306 -343 -4 -3 20
-84 53 -180 33 -95 59 -174 58 -175 -7 -5 -322 -165 -325 -165 -1 0 -53 68
-114 151 -85 114 -115 149 -128 144 -9 -4 -61 -16 -116 -28 -78 -16 -140 -21
-283 -23 l-183 -1 -77 -164 c-42 -90 -77 -165 -77 -166 -2 -3 -346 105 -351
110 -1 1 10 83 25 182 l27 180 -78 47 c-108 65 -199 140 -295 242 l-83 87
-173 -59 -172 -60 -85 164 c-55 106 -81 167 -74 172 6 4 73 53 150 110 l140
103 -24 102 c-21 87 -25 132 -28 302 l-3 200 -163 78 c-90 43 -165 80 -167 82
-2 2 22 83 53 180 l57 176 32 -6 c117 -22 337 -51 337 -44 0 16 140 218 189
272 l53 57 207 0 c235 0 313 14 435 76 128 65 212 140 298 267 l40 58 56 -6
c31 -3 69 -9 84 -11 26 -5 30 0 110 160 46 91 87 166 91 166 5 0 82 -23 170
-51z"/>
<path d="M940 3919 l0 -192 54 52 c30 28 59 51 64 51 5 0 115 -107 245 -238
l236 -239 78 79 78 78 -243 243 -242 242 57 58 58 57 -193 0 -192 0 0 -191z"/>
<path d="M3075 2358 c-3 -7 -4 -209 -3 -448 l3 -435 58 -3 57 -3 0 166 0 165
116 0 c137 0 179 11 235 59 63 53 79 97 79 222 0 93 -3 111 -26 157 -33 67
-93 110 -172 122 -88 15 -342 13 -347 -2z m328 -115 c23 -3 50 -18 68 -35 28
-28 29 -33 29 -124 0 -89 -1 -95 -29 -126 l-29 -33 -126 -3 -126 -4 0 160 c0
87 3 162 7 165 8 9 155 9 206 0z"/>
<path d="M3747 2363 c-4 -3 -7 -30 -7 -60 l0 -53 60 0 60 0 0 -355 0 -355 -60
0 -60 0 0 -60 0 -60 175 0 175 0 0 60 0 60 -55 0 -55 0 2 353 3 352 53 3 52 3
0 60 0 59 -168 0 c-93 0 -172 -3 -175 -7z"/>
<path d="M2503 2344 c-57 -21 -128 -86 -161 -148 l-27 -51 -3 -337 -3 -338 61
0 60 0 0 195 0 195 180 0 180 0 2 -192 3 -193 58 -3 58 -3 -3 343 c-3 334 -4
344 -26 385 -31 59 -86 111 -146 139 -60 28 -165 32 -233 8z m223 -139 c46
-35 64 -81 64 -164 l0 -71 -181 0 -181 0 3 78 c3 63 9 85 29 114 59 87 182
107 266 43z"/>
<path d="M497 2193 c-4 -3 -7 -39 -7 -80 l0 -73 80 0 80 0 0 80 0 80 -73 0
c-41 0 -77 -3 -80 -7z"/>
<path d="M497 1723 c-4 -3 -7 -39 -7 -80 l0 -73 80 0 80 0 0 80 0 80 -73 0
c-41 0 -77 -3 -80 -7z"/>
<path d="M492 1173 l3 -78 78 -3 77 -3 0 81 0 80 -80 0 -81 0 3 -77z"/>
</g>
</svg>
