<?xml version="1.0" standalone="no"?>
<!DOCTYPE svg PUBLIC "-//W3C//DTD SVG 20010904//EN"
 "http://www.w3.org/TR/2001/REC-SVG-20010904/DTD/svg10.dtd">
<svg version="1.0" xmlns="http://www.w3.org/2000/svg"
 width="204.000000pt" height="192.000000pt" viewBox="0 0 204.000000 192.000000"
 preserveAspectRatio="xMidYMid meet">

<g transform="translate(0.000000,192.000000) scale(0.100000,-0.100000)"
fill="#000000" stroke="none">
<path d="M0 960 l0 -960 1020 0 1020 0 0 960 0 960 -1020 0 -1020 0 0 -960z
m1540 577 c57 -38 70 -72 76 -194 9 -185 32 -265 94 -317 17 -14 40 -26 51
-26 16 0 19 -7 19 -45 0 -38 -3 -45 -20 -45 -34 0 -88 -57 -111 -118 -16 -43
-23 -90 -29 -192 -4 -74 -12 -147 -18 -161 -6 -15 -28 -40 -49 -58 l-38 -31
-490 0 c-369 0 -496 3 -514 13 -13 6 -37 28 -53 48 -26 33 -29 44 -33 135 -7
143 -14 189 -35 248 -22 59 -61 101 -102 111 -25 6 -28 11 -28 51 0 37 3 44
19 44 26 0 78 44 98 83 28 55 34 90 42 228 8 152 20 186 81 226 l33 23 487 0
487 0 33 -23z"/>
<path d="M760 951 c0 -204 0 -374 0 -378 0 -5 89 -8 198 -8 196 0 197 0 255
28 70 35 105 82 114 155 11 98 -49 188 -139 208 l-32 6 30 15 c130 67 142 221
23 303 l-52 35 -198 3 -199 4 0 -371z m332 269 c50 -14 78 -52 78 -104 0 -87
-50 -116 -200 -116 l-100 0 0 108 c0 60 3 112 7 115 10 11 174 8 215 -3z m48
-332 c54 -28 72 -59 67 -116 -9 -87 -59 -112 -222 -112 l-115 0 0 118 c0 65 3
122 7 125 3 4 54 7 113 7 90 0 112 -3 150 -22z"/>
</g>
</svg>
