<?xml version="1.0" standalone="no"?>
<!DOCTYPE svg PUBLIC "-//W3C//DTD SVG 20010904//EN"
 "http://www.w3.org/TR/2001/REC-SVG-20010904/DTD/svg10.dtd">
<svg version="1.0" xmlns="http://www.w3.org/2000/svg"
 width="512.000000pt" height="512.000000pt" viewBox="0 0 512.000000 512.000000"
 preserveAspectRatio="xMidYMid meet">

<g transform="translate(0.000000,512.000000) scale(0.100000,-0.100000)"
fill="#000000" stroke="none">
<path d="M1884 4765 c-286 -94 -587 -271 -809 -478 l-70 -65 109 -52 c126 -60
396 -155 407 -143 4 4 22 44 39 88 93 236 226 459 356 595 42 44 75 82 73 84
-2 2 -49 -11 -105 -29z"/>
<path d="M3182 4742 c133 -135 281 -379 374 -616 21 -54 44 -100 51 -103 25
-10 376 124 471 180 l33 20 -33 34 c-53 56 -225 192 -328 259 -176 115 -373
208 -554 262 l-69 21 55 -57z"/>
<path d="M2341 4645 c-142 -82 -276 -235 -391 -447 -41 -76 -112 -240 -106
-245 9 -9 340 -54 439 -60 l117 -6 0 391 c0 216 -3 392 -7 392 -5 0 -28 -11
-52 -25z"/>
<path d="M2720 4278 l0 -391 113 6 c107 6 360 39 419 55 l27 7 -34 83 c-85
208 -218 408 -347 522 -46 40 -154 110 -170 110 -4 0 -8 -176 -8 -392z"/>
<path d="M713 3857 c-196 -296 -314 -607 -370 -967 -24 -159 -24 -499 0 -664
38 -250 109 -478 222 -711 73 -151 126 -236 242 -392 102 -137 123 -154 49
-39 l-56 86 138 69 c177 88 280 128 488 190 368 109 678 151 1119 151 442 0
768 -45 1145 -159 191 -57 331 -114 494 -200 64 -34 121 -59 126 -56 22 14
149 220 206 335 123 248 198 496 236 780 20 152 15 488 -11 655 -42 279 -104
483 -215 710 -60 123 -194 339 -206 333 -3 -2 -70 -36 -149 -76 -186 -95 -274
-130 -480 -192 -291 -87 -505 -124 -871 -151 -201 -15 -585 -7 -758 16 -354
45 -747 152 -1002 272 -63 30 -144 66 -180 79 -36 14 -70 31 -76 39 -9 11 -27
-10 -91 -108z m807 -673 c16 -8 95 -117 210 -290 l185 -277 5 239 c6 274 10
291 83 325 87 39 184 11 217 -63 19 -41 20 -69 20 -553 0 -572 1 -563 -74
-620 -31 -24 -43 -27 -86 -23 -88 9 -109 31 -300 318 l-175 263 -5 -239 c-6
-274 -10 -291 -83 -325 -87 -39 -184 -11 -217 63 -19 41 -20 69 -20 553 0 477
2 513 19 551 41 89 134 122 221 78z m1758 -4 c108 -49 108 -231 0 -280 -39
-18 -67 -20 -300 -20 l-258 0 0 -80 0 -80 98 0 c126 -1 174 -20 202 -82 40
-88 12 -184 -62 -218 -33 -15 -66 -20 -140 -20 l-98 0 0 -80 0 -80 258 0 c233
0 261 -2 300 -20 108 -49 108 -231 0 -280 -40 -18 -68 -20 -398 -20 -330 0
-358 2 -398 20 -33 15 -47 29 -62 62 -19 41 -20 69 -20 558 0 489 1 517 20
558 15 33 29 47 62 62 40 18 68 20 398 20 330 0 358 -2 398 -20z m1120 0 c74
-34 102 -130 62 -218 -28 -62 -76 -81 -202 -82 l-98 0 0 -417 c0 -392 -2 -421
-20 -461 -49 -108 -231 -108 -280 0 -18 40 -20 69 -20 461 l0 417 -97 0 c-127
1 -175 20 -203 82 -40 88 -12 184 62 218 40 18 68 20 398 20 330 0 358 -2 398
-20z m-3440 -960 c74 -34 102 -130 62 -218 -49 -108 -231 -108 -280 0 -40 88
-12 184 62 218 54 25 102 25 156 0z"/>
<path d="M2205 1223 c-52 -5 -357 -52 -361 -56 -6 -5 65 -169 106 -245 90
-166 192 -297 299 -382 55 -44 129 -90 146 -90 3 0 5 176 5 390 l0 390 -77 -2
c-43 -1 -96 -3 -118 -5z"/>
<path d="M2720 840 c0 -214 4 -390 8 -390 16 0 124 70 170 110 129 114 262
314 347 522 19 45 33 84 31 85 -8 9 -465 63 -531 63 l-25 0 0 -390z"/>
<path d="M1370 1056 c-121 -42 -228 -87 -319 -135 l-43 -23 33 -35 c53 -54
224 -190 323 -255 173 -113 368 -207 547 -262 l80 -25 -64 68 c-79 84 -201
259 -258 371 -23 47 -66 141 -94 210 -29 69 -58 126 -66 128 -8 1 -70 -18
-139 -42z"/>
<path d="M3584 1063 c-134 -328 -235 -501 -382 -654 -41 -44 -73 -81 -71 -83
7 -7 227 68 314 107 110 49 234 118 336 188 90 62 254 196 303 247 l28 31 -58
29 c-128 64 -406 172 -443 172 -7 0 -19 -17 -27 -37z"/>
</g>
</svg>
