<?xml version="1.0" standalone="no"?>
<!DOCTYPE svg PUBLIC "-//W3C//DTD SVG 20010904//EN"
 "http://www.w3.org/TR/2001/REC-SVG-20010904/DTD/svg10.dtd">
<svg version="1.0" xmlns="http://www.w3.org/2000/svg"
 width="204.000000pt" height="192.000000pt" viewBox="0 0 204.000000 192.000000"
 preserveAspectRatio="xMidYMid meet">

<g transform="translate(0.000000,192.000000) scale(0.100000,-0.100000)"
fill="#000000" stroke="none">
<path d="M607 1885 c-110 -48 -209 -117 -303 -210 -134 -133 -221 -284 -271
-470 -23 -87 -26 -119 -26 -250 0 -131 3 -163 26 -250 78 -293 264 -523 528
-656 l99 -49 358 0 358 0 82 40 c116 56 195 112 283 199 130 130 217 283 266
466 23 87 26 120 26 250 0 130 -3 163 -26 250 -50 186 -137 337 -271 470 -93
93 -186 157 -302 209 l-82 36 -333 0 -334 -1 -78 -34z m230 -589 c26 -35 147
-191 269 -347 263 -339 368 -480 351 -474 -6 3 -30 -12 -52 -32 l-40 -38 -83
100 c-46 55 -183 229 -305 387 l-222 288 -3 -315 -2 -315 -70 0 -70 0 0 405 0
405 89 0 89 0 49 -64z m602 -48 c0 -62 -3 -129 -7 -148 l-7 -35 -56 0 -56 0
-7 95 c-3 52 -6 119 -6 148 l0 52 70 0 70 0 -1 -112z"/>
</g>
</svg>
