<?xml version="1.0" standalone="no"?>
<!DOCTYPE svg PUBLIC "-//W3C//DTD SVG 20010904//EN"
 "http://www.w3.org/TR/2001/REC-SVG-20010904/DTD/svg10.dtd">
<svg version="1.0" xmlns="http://www.w3.org/2000/svg"
 width="512.000000pt" height="512.000000pt" viewBox="0 0 512.000000 512.000000"
 preserveAspectRatio="xMidYMid meet">

<g transform="translate(0.000000,512.000000) scale(0.100000,-0.100000)"
fill="#000000" stroke="none">
<path d="M1780 4415 c-166 -47 -285 -187 -341 -400 -45 -173 -36 -467 22 -748
15 -77 26 -143 24 -147 -3 -4 -17 -11 -32 -15 -62 -15 -264 -99 -353 -147
-132 -70 -225 -136 -303 -215 -83 -86 -98 -105 -135 -178 -44 -86 -55 -142
-50 -244 4 -81 8 -98 47 -176 105 -212 371 -404 736 -530 44 -16 83 -31 87
-34 4 -4 -5 -70 -21 -146 -42 -203 -55 -342 -48 -518 9 -245 63 -403 177 -517
124 -124 285 -159 493 -106 205 52 426 185 675 406 l93 83 47 -45 c279 -268
608 -450 841 -465 465 -30 658 446 488 1204 l-23 101 125 47 c398 150 650 346
733 570 34 91 32 237 -5 323 -94 225 -353 422 -738 562 l-116 42 14 54 c7 30
24 118 38 196 89 530 -7 890 -273 1016 -172 82 -395 46 -666 -106 -98 -55
-284 -195 -388 -292 l-78 -71 -92 82 c-233 206 -432 331 -628 394 -107 35
-265 43 -350 20z m314 -176 c111 -37 241 -107 364 -198 111 -82 272 -222 272
-237 0 -6 -10 -19 -21 -30 -39 -34 -235 -270 -318 -382 l-82 -109 -107 -13
c-128 -14 -347 -54 -454 -81 -42 -10 -83 -19 -90 -19 -18 0 -50 133 -73 305
-13 89 -16 164 -12 290 4 148 8 180 30 250 28 84 73 158 119 194 90 71 219 81
372 30z m1821 7 c89 -41 153 -132 190 -271 23 -83 30 -288 16 -426 -13 -125
-57 -359 -70 -372 -5 -5 -69 5 -142 21 -133 30 -337 65 -457 78 l-63 7 -88
116 c-94 124 -177 225 -279 339 l-63 71 88 77 c150 132 292 231 418 294 144
71 203 88 315 89 69 1 94 -4 135 -23z m-988 -639 c83 -95 242 -290 243 -297 0
-3 -146 -5 -324 -5 l-323 0 60 79 c75 96 258 306 266 305 3 0 38 -37 78 -82z
m359 -475 c42 -22 271 -397 400 -653 l64 -129 -64 -129 c-84 -167 -198 -364
-302 -523 -76 -117 -85 -127 -121 -135 -49 -10 -764 -10 -823 0 -45 7 -46 9
-131 140 -101 154 -234 386 -310 540 l-54 108 67 132 c88 174 191 352 295 512
47 71 87 132 90 135 20 21 850 23 889 2z m-1112 -49 c-56 -85 -190 -315 -247
-422 l-65 -124 -17 39 c-75 175 -159 424 -147 435 15 14 411 96 476 98 18 1
18 0 0 -26z m1496 2 c163 -29 322 -64 331 -74 8 -7 -57 -203 -121 -365 l-42
-108 -41 73 c-80 149 -171 306 -228 398 -33 51 -59 95 -59 97 0 6 8 5 160 -21z
m786 -234 c152 -73 260 -146 344 -231 202 -205 168 -423 -95 -623 -100 -76
-297 -178 -446 -231 l-97 -35 -37 112 c-44 133 -89 253 -152 399 l-46 107 66
158 c36 87 89 226 117 310 l52 152 86 -30 c48 -17 142 -57 208 -88z m-2906 72
c32 -103 110 -313 162 -435 l58 -138 -59 -137 c-61 -143 -141 -357 -160 -430
-7 -27 -18 -43 -27 -43 -30 0 -211 73 -327 132 -443 225 -550 499 -294 752 86
86 159 137 295 206 104 53 295 129 324 130 10 0 21 -13 28 -37z m522 -1139
c46 -77 92 -152 103 -167 l18 -29 -34 6 c-19 3 -77 13 -129 21 -124 21 -323
65 -333 74 -12 11 72 258 148 435 l17 39 63 -120 c35 -66 101 -183 147 -259z
m1803 284 c58 -144 135 -372 127 -379 -16 -15 -479 -105 -489 -95 -2 2 23 46
55 97 73 116 165 277 222 387 23 45 44 82 45 82 2 0 20 -42 40 -92z m-2080
-567 c131 -29 337 -64 452 -77 l62 -7 72 -96 c97 -128 178 -228 271 -333 43
-48 78 -89 78 -92 0 -10 -112 -111 -208 -188 -124 -99 -282 -193 -397 -237
-72 -27 -109 -35 -185 -39 -122 -6 -177 15 -249 94 -86 94 -121 228 -121 457
0 196 54 547 84 547 6 0 70 -13 141 -29z m2272 -26 c7 -27 22 -106 35 -175 29
-167 32 -458 5 -565 -35 -139 -88 -222 -175 -272 -54 -32 -173 -43 -260 -23
-170 38 -385 166 -611 363 l-102 89 53 60 c105 119 201 235 289 349 l89 117
62 7 c104 10 356 54 463 79 134 32 136 32 152 -29z m-897 -84 c0 -9 -191 -239
-256 -310 l-68 -74 -39 44 c-84 96 -186 217 -234 279 l-51 65 324 0 c178 0
324 -2 324 -4z"/>
<path d="M2751 2819 c-75 -14 -168 -65 -230 -124 -288 -274 -138 -749 257
-817 126 -21 275 20 376 103 184 153 225 428 95 631 -103 161 -306 245 -498
207z"/>
</g>
</svg>
