<?xml version="1.0" standalone="no"?>
<!DOCTYPE svg PUBLIC "-//W3C//DTD SVG 20010904//EN"
 "http://www.w3.org/TR/2001/REC-SVG-20010904/DTD/svg10.dtd">
<svg version="1.0" xmlns="http://www.w3.org/2000/svg"
 width="512.000000pt" height="512.000000pt" viewBox="0 0 512.000000 512.000000"
 preserveAspectRatio="xMidYMid meet">

<g transform="translate(0.000000,512.000000) scale(0.100000,-0.100000)"
fill="#000000" stroke="none">
<path d="M1365 4536 c-17 -7 -43 -28 -58 -45 l-27 -33 0 -533 0 -533 27 -33
c53 -62 -27 -59 1363 -59 1399 0 1320 -4 1360 62 19 32 20 49 20 563 0 514 -1
531 -20 563 -40 66 39 62 -1362 62 -1036 -1 -1279 -3 -1303 -14z m731 -266
c76 -34 104 -63 104 -107 0 -71 -71 -97 -144 -52 -74 46 -162 44 -187 -3 -16
-30 8 -48 132 -97 120 -48 168 -83 198 -144 84 -174 -81 -351 -295 -317 -118
19 -234 98 -234 159 0 46 35 81 80 81 22 0 43 -6 50 -16 8 -8 33 -27 57 -41
83 -49 193 -27 201 39 4 34 -25 53 -159 107 -149 59 -191 106 -191 212 0 177
196 267 388 179z m783 13 c95 -32 174 -104 219 -202 41 -86 43 -205 7 -295
l-27 -68 27 -28 c35 -37 38 -96 5 -122 -32 -26 -83 -23 -119 8 l-31 26 -47
-22 c-100 -47 -221 -46 -326 3 -81 38 -132 89 -174 175 -36 71 -38 82 -38 167
0 85 2 96 38 167 87 176 277 254 466 191z m544 0 c15 -15 17 -42 17 -300 l0
-283 84 0 c66 0 89 -4 106 -18 30 -24 30 -86 1 -116 -20 -19 -32 -21 -161 -21
-132 0 -141 1 -162 23 l-23 23 0 333 c0 355 0 356 50 377 25 10 65 2 88 -18z"/>
<path d="M2701 4140 c-89 -21 -171 -125 -171 -215 0 -25 11 -62 28 -96 47 -93
151 -144 244 -119 l40 11 -25 27 c-13 15 -28 37 -32 50 -14 49 30 102 85 102
11 0 35 -14 53 -30 35 -30 35 -30 41 -8 11 41 6 108 -10 146 -40 96 -154 156
-253 132z"/>
<path d="M2072 2567 c-4 -32 -95 -112 -174 -152 l-78 -40 0 -212 c0 -117 3
-213 6 -213 15 0 143 73 177 101 73 60 78 81 74 321 -1 117 -3 205 -5 195z"/>
<path d="M2067 1693 c-14 -39 -86 -100 -167 -142 l-80 -42 0 -149 c0 -82 -5
-161 -11 -177 -12 -34 -50 -75 -104 -115 l-40 -30 35 7 c169 35 359 161 375
250 9 47 1 423 -8 398z"/>
</g>
</svg>
